<?xml version="1.0" encoding="iso-8859-1"?>
<!-- Generator: Adobe Illustrator 19.0.0, SVG Export Plug-In . SVG Version: 6.00 Build 0)  -->
<svg version="1.1" id="Layer_1" xmlns="http://www.w3.org/2000/svg" xmlns:xlink="http://www.w3.org/1999/xlink" x="0px" y="0px"
	 viewBox="0 0 297 297" style="enable-background:new 0 0 297 297;" xml:space="preserve">
<g>
	<path style="fill:#BFF796;" d="M288.265,115.208H8.735c-4.824,0-8.735,3.911-8.735,8.735v157.235c0,4.824,3.911,8.735,8.735,8.735
		h279.529c4.824,0,8.735-3.911,8.735-8.735V123.944C297,119.119,293.089,115.208,288.265,115.208z"/>
	<path style="fill:#AFE286;" d="M288.265,115.208H147.13v174.706h141.135c4.824,0,8.735-3.911,8.735-8.735V123.944
		C297,119.119,293.089,115.208,288.265,115.208z"/>
	<path style="fill:#86C867;" d="M202.386,185.962l79.948-49.968c3.86-2.413,5.035-7.499,2.621-11.359
		c-2.412-3.861-7.5-5.032-11.359-2.621L148.5,200.2L23.404,122.014c-3.857-2.413-8.945-1.239-11.359,2.621
		c-2.413,3.86-1.239,8.946,2.621,11.359l79.948,49.968l-79.836,79.836c-3.219,3.219-3.219,8.438,0,11.658
		c1.61,1.609,3.719,2.414,5.829,2.414c2.109,0,4.219-0.805,5.829-2.414l82.527-82.526l35.168,21.98
		c1.336,0.835,2.853,1.253,4.369,1.253s3.032-0.418,4.369-1.253l35.168-21.98l82.527,82.526c1.61,1.609,3.719,2.414,5.829,2.414
		s4.219-0.805,5.829-2.414c3.219-3.22,3.219-8.439,0-11.658L202.386,185.962z"/>
	<path style="fill:#6CAA4B;" d="M202.386,185.962l79.948-49.968c3.86-2.413,5.034-7.499,2.621-11.359
		c-2.412-3.861-7.5-5.032-11.359-2.621L148.5,200.2l-1.37-0.856v18.692c0.454,0.077,0.911,0.128,1.37,0.128
		c1.516,0,3.032-0.417,4.369-1.253l35.168-21.98l82.527,82.526c1.61,1.609,3.719,2.414,5.829,2.414c2.11,0,4.219-0.805,5.829-2.414
		c3.219-3.22,3.219-8.439,0-11.658L202.386,185.962z"/>
	<path style="fill:#17AB93;" d="M217.982,82.603c-1.352-3.264-4.537-5.392-8.07-5.392l-21.971,0.001V15.821
		c0-2.316-0.92-4.538-2.558-6.177c-1.639-1.638-3.861-2.558-6.177-2.558l-61.412,0.001c-4.824,0-8.735,3.911-8.735,8.735v61.39
		H87.088c-3.533,0-6.718,2.129-8.07,5.392c-1.353,3.265-0.605,7.021,1.893,9.52l61.412,61.411c1.706,1.705,3.941,2.558,6.177,2.558
		s4.471-0.853,6.177-2.558l61.412-61.412C218.587,89.625,219.335,85.867,217.982,82.603z"/>
	<path style="fill:#11937A;" d="M217.982,82.603c-1.352-3.264-4.537-5.392-8.07-5.392l-21.971,0.001V15.821
		c0-2.316-0.92-4.538-2.558-6.177c-1.639-1.638-3.861-2.558-6.177-2.558H147.13v148.89c0.454,0.072,0.911,0.117,1.37,0.117
		c2.236,0,4.471-0.853,6.177-2.558l61.412-61.412C218.587,89.625,219.335,85.867,217.982,82.603z"/>
</g>
<g>
</g>
<g>
</g>
<g>
</g>
<g>
</g>
<g>
</g>
<g>
</g>
<g>
</g>
<g>
</g>
<g>
</g>
<g>
</g>
<g>
</g>
<g>
</g>
<g>
</g>
<g>
</g>
<g>
</g>
</svg>
